<?xml version="1.0" encoding="UTF-8" standalone="no"?>
<!-- Created with Inkscape (http://www.inkscape.org/) -->

<svg
   xmlns:dc="http://purl.org/dc/elements/1.1/"
   xmlns:cc="http://creativecommons.org/ns#"
   xmlns:rdf="http://www.w3.org/1999/02/22-rdf-syntax-ns#"
   xmlns:svg="http://www.w3.org/2000/svg"
   xmlns="http://www.w3.org/2000/svg"
   xmlns:sodipodi="http://sodipodi.sourceforge.net/DTD/sodipodi-0.dtd"
   xmlns:inkscape="http://www.inkscape.org/namespaces/inkscape"
   version="1.1"
   width="450"
   height="240"
   id="svg2830"
   inkscape:version="0.47 r22583"
   sodipodi:docname="logo.svg">
  <metadata
     id="metadata2992">
    <rdf:RDF>
      <cc:Work
         rdf:about="">
        <dc:format>image/svg+xml</dc:format>
        <dc:type
           rdf:resource="http://purl.org/dc/dcmitype/StillImage" />
      </cc:Work>
    </rdf:RDF>
  </metadata>
  <sodipodi:namedview
     pagecolor="#ffffff"
     bordercolor="#666666"
     borderopacity="1"
     objecttolerance="10"
     gridtolerance="10"
     guidetolerance="10"
     inkscape:pageopacity="0"
     inkscape:pageshadow="2"
     inkscape:window-width="1280"
     inkscape:window-height="738"
     id="namedview2990"
     showgrid="false"
     inkscape:zoom="1"
     inkscape:cx="225"
     inkscape:cy="120"
     inkscape:window-x="0"
     inkscape:window-y="0"
     inkscape:window-maximized="1"
     inkscape:current-layer="svg2830" />
  <defs
     id="defs2834">
    <inkscape:perspective
       sodipodi:type="inkscape:persp3d"
       inkscape:vp_x="0 : 120 : 1"
       inkscape:vp_y="0 : 1000 : 0"
       inkscape:vp_z="450 : 120 : 1"
       inkscape:persp3d-origin="225 : 80 : 1"
       id="perspective2994" />
  </defs>
  <rect
     width="12"
     height="12"
     x="66"
     y="66"
     id="rect3258"
     style="fill:#e9afaf" />
  <rect
     width="12"
     height="12"
     x="81"
     y="21"
     id="rect3268"
     style="fill:#e9afaf" />
  <rect
     width="12"
     height="12"
     x="81"
     y="36"
     id="rect3270"
     style="fill:#e9afaf" />
  <rect
     width="12"
     height="12"
     x="81"
     y="51"
     id="rect3272"
     style="fill:#e9afaf" />
  <rect
     width="12"
     height="12"
     x="81"
     y="66"
     id="rect3274"
     style="fill:#e9afaf" />
  <rect
     width="12"
     height="12"
     x="81"
     y="81"
     id="rect3276"
     style="fill:#e9afaf" />
  <rect
     width="12"
     height="12"
     x="81"
     y="96"
     id="rect3278"
     style="fill:#e9afaf" />
  <rect
     width="12"
     height="12"
     x="96"
     y="66"
     id="rect3290"
     style="fill:#e9afaf" />
  <rect
     width="12"
     height="12"
     x="96"
     y="126"
     id="rect3298"
     style="fill:#e9afaf" />
  <rect
     width="12"
     height="12"
     x="111"
     y="21"
     id="rect3300"
     style="fill:#e9afaf" />
  <rect
     width="12"
     height="12"
     x="111"
     y="36"
     id="rect3302"
     style="fill:#e9afaf" />
  <rect
     width="12"
     height="12"
     x="111"
     y="51"
     id="rect3304"
     style="fill:#e9afaf" />
  <rect
     width="12"
     height="12"
     x="111"
     y="66"
     id="rect3306"
     style="fill:#e9afaf" />
  <rect
     width="12"
     height="12"
     x="111"
     y="81"
     id="rect3308"
     style="fill:#e9afaf" />
  <rect
     width="12"
     height="12"
     x="111"
     y="96"
     id="rect3310"
     style="fill:#e9afaf" />
  <rect
     width="12"
     height="12"
     x="111"
     y="126"
     id="rect3314"
     style="fill:#e9afaf" />
  <rect
     width="12"
     height="12"
     x="126"
     y="36"
     id="rect3318"
     style="fill:#e9afaf" />
  <rect
     width="12"
     height="12"
     x="126"
     y="66"
     id="rect3322"
     style="fill:#e9afaf" />
  <rect
     width="12"
     height="12"
     x="126"
     y="111"
     id="rect3328"
     style="fill:#e9afaf" />
  <rect
     width="12"
     height="12"
     x="141"
     y="36"
     id="rect3334"
     style="fill:#e9afaf" />
  <rect
     width="12"
     height="12"
     x="141"
     y="66"
     id="rect3338"
     style="fill:#e9afaf" />
  <rect
     width="12"
     height="12"
     x="141"
     y="81"
     id="rect3340"
     style="fill:#e9afaf" />
  <rect
     width="12"
     height="12"
     x="141"
     y="96"
     id="rect3342"
     style="fill:#e9afaf" />
  <rect
     width="12"
     height="12"
     x="171"
     y="66"
     id="rect3370"
     style="fill:#e9afaf" />
  <rect
     width="12"
     height="12"
     x="186"
     y="21"
     id="rect3380"
     style="fill:#e9afaf" />
  <rect
     width="12"
     height="12"
     x="186"
     y="36"
     id="rect3382"
     style="fill:#e9afaf" />
  <rect
     width="12"
     height="12"
     x="186"
     y="51"
     id="rect3384"
     style="fill:#e9afaf" />
  <rect
     width="12"
     height="12"
     x="186"
     y="66"
     id="rect3386"
     style="fill:#e9afaf" />
  <rect
     width="12"
     height="12"
     x="186"
     y="81"
     id="rect3388"
     style="fill:#e9afaf" />
  <rect
     width="12"
     height="12"
     x="186"
     y="96"
     id="rect3390"
     style="fill:#e9afaf" />
  <rect
     width="12"
     height="12"
     x="201"
     y="66"
     id="rect3402"
     style="fill:#e9afaf" />
  <rect
     width="12"
     height="12"
     x="201"
     y="126"
     id="rect3410"
     style="fill:#e9afaf" />
  <rect
     width="12"
     height="12"
     x="216"
     y="21"
     id="rect3412"
     style="fill:#e9afaf" />
  <rect
     width="12"
     height="12"
     x="216"
     y="36"
     id="rect3414"
     style="fill:#e9afaf" />
  <rect
     width="12"
     height="12"
     x="216"
     y="51"
     id="rect3416"
     style="fill:#e9afaf" />
  <rect
     width="12"
     height="12"
     x="216"
     y="66"
     id="rect3418"
     style="fill:#e9afaf" />
  <rect
     width="12"
     height="12"
     x="216"
     y="81"
     id="rect3420"
     style="fill:#e9afaf" />
  <rect
     width="12"
     height="12"
     x="216"
     y="96"
     id="rect3422"
     style="fill:#e9afaf" />
  <rect
     width="12"
     height="12"
     x="216"
     y="126"
     id="rect3426"
     style="fill:#e9afaf" />
  <rect
     width="12"
     height="12"
     x="231"
     y="36"
     id="rect3430"
     style="fill:#e9afaf" />
  <rect
     width="12"
     height="12"
     x="231"
     y="66"
     id="rect3434"
     style="fill:#e9afaf" />
  <rect
     width="12"
     height="12"
     x="231"
     y="111"
     id="rect3440"
     style="fill:#e9afaf" />
  <rect
     width="12"
     height="12"
     x="246"
     y="36"
     id="rect3446"
     style="fill:#e9afaf" />
  <rect
     width="12"
     height="12"
     x="246"
     y="66"
     id="rect3450"
     style="fill:#e9afaf" />
  <rect
     width="12"
     height="12"
     x="246"
     y="81"
     id="rect3452"
     style="fill:#e9afaf" />
  <rect
     width="12"
     height="12"
     x="246"
     y="96"
     id="rect3454"
     style="fill:#e9afaf" />
  <rect
     width="12"
     height="12"
     x="276"
     y="21"
     id="rect3476"
     style="fill:#e9afaf" />
  <rect
     width="12"
     height="12"
     x="276"
     y="51"
     id="rect3480"
     style="fill:#e9afaf" />
  <rect
     width="12"
     height="12"
     x="291"
     y="21"
     id="rect3492"
     style="fill:#e9afaf" />
  <rect
     width="12"
     height="12"
     x="291"
     y="51"
     id="rect3496"
     style="fill:#e9afaf" />
  <rect
     width="12"
     height="12"
     x="291"
     y="66"
     id="rect3498"
     style="fill:#e9afaf" />
  <rect
     width="12"
     height="12"
     x="291"
     y="81"
     id="rect3500"
     style="fill:#e9afaf" />
  <rect
     width="12"
     height="12"
     x="291"
     y="96"
     id="rect3502"
     style="fill:#e9afaf" />
  <rect
     width="12"
     height="12"
     x="291"
     y="111"
     id="rect3504"
     style="fill:#e9afaf" />
  <rect
     width="12"
     height="12"
     x="291"
     y="126"
     id="rect3506"
     style="fill:#e9afaf" />
  <rect
     width="12"
     height="12"
     x="306"
     y="36"
     id="rect3510"
     style="fill:#e9afaf" />
  <rect
     width="12"
     height="12"
     x="306"
     y="66"
     id="rect3514"
     style="fill:#e9afaf" />
  <rect
     width="12"
     height="12"
     x="306"
     y="96"
     id="rect3518"
     style="fill:#e9afaf" />
  <rect
     width="12"
     height="12"
     x="306"
     y="126"
     id="rect3522"
     style="fill:#e9afaf" />
  <rect
     width="12"
     height="12"
     x="321"
     y="21"
     id="rect3524"
     style="fill:#e9afaf" />
  <rect
     width="12"
     height="12"
     x="321"
     y="36"
     id="rect3526"
     style="fill:#e9afaf" />
  <rect
     width="12"
     height="12"
     x="321"
     y="51"
     id="rect3528"
     style="fill:#e9afaf" />
  <rect
     width="12"
     height="12"
     x="321"
     y="66"
     id="rect3530"
     style="fill:#e9afaf" />
  <rect
     width="12"
     height="12"
     x="321"
     y="81"
     id="rect3532"
     style="fill:#e9afaf" />
  <rect
     width="12"
     height="12"
     x="321"
     y="96"
     id="rect3534"
     style="fill:#e9afaf" />
  <rect
     width="12"
     height="12"
     x="321"
     y="111"
     id="rect3536"
     style="fill:#e9afaf" />
  <rect
     width="12"
     height="12"
     x="321"
     y="126"
     id="rect3538"
     style="fill:#e9afaf" />
  <rect
     width="12"
     height="12"
     x="336"
     y="36"
     id="rect3542"
     style="fill:#e9afaf" />
  <rect
     width="12"
     height="12"
     x="336"
     y="66"
     id="rect3546"
     style="fill:#e9afaf" />
  <rect
     width="12"
     height="12"
     x="336"
     y="96"
     id="rect3550"
     style="fill:#e9afaf" />
  <rect
     width="12"
     height="12"
     x="336"
     y="126"
     id="rect3554"
     style="fill:#e9afaf" />
  <rect
     width="12"
     height="12"
     x="351"
     y="21"
     id="rect3556"
     style="fill:#e9afaf" />
  <rect
     width="12"
     height="12"
     x="351"
     y="51"
     id="rect3560"
     style="fill:#e9afaf" />
  <rect
     width="12"
     height="12"
     x="366"
     y="21"
     id="rect3572"
     style="fill:#e9afaf" />
  <rect
     width="12"
     height="12"
     x="366"
     y="51"
     id="rect3576"
     style="fill:#e9afaf" />
  <rect
     width="12"
     height="12"
     x="366"
     y="66"
     id="rect3578"
     style="fill:#e9afaf" />
  <rect
     width="12"
     height="12"
     x="366"
     y="81"
     id="rect3580"
     style="fill:#e9afaf" />
  <rect
     width="12"
     height="12"
     x="366"
     y="96"
     id="rect3582"
     style="fill:#e9afaf" />
  <rect
     width="12"
     height="12"
     x="366"
     y="111"
     id="rect3584"
     style="fill:#e9afaf" />
  <rect
     width="12"
     height="12"
     x="366"
     y="126"
     id="rect3586"
     style="fill:#e9afaf" />
  <path
     d="m 198,207 0,-6 -3,0 -3,0 0,3 0,3 -12,0 -12,0 0,-3 0,-3 -3,0 -3,0 0,3 0,3 -12,0 -12,0 0,-3 0,-3 -3,0 -3,0 0,3 0,3 -12,0 -12,0 0,-3 0,-3 -3,0 -3,0 0,3 0,3 -12,0 -12,0 0,-3 0,-3 -6,0 -6,0 0,-3 0,-3 6,0 6,0 0,-21 0,-21 3,0 3,0 0,12 0,12 9,0 9,0 0,9 0,9 3,0 3,0 0,-12 0,-12 3,0 3,0 0,15 0,15 6,0 6,0 0,-15 0,-15 3,0 3,0 0,12 0,12 3,0 3,0 0,-21 0,-21 3,0 3,0 0,12 0,12 9,0 9,0 0,9 0,9 3,0 3,0 0,-12 0,-12 3,0 3,0 0,15 0,15 6,0 6,0 0,-15 0,-15 3,0 3,0 0,12 0,12 6,0 6,0 0,6 0,6 6,0 6,0 0,-18 0,-18 3,0 3,0 0,12 0,12 3,0 3,0 0,-12 0,-12 3,0 3,0 0,12 0,12 3,0 3,0 0,-12 0,-12 12,0 12,0 0,9 0,9 -9,0 -9,0 0,6 0,6 6,0 6,0 0,-3 0,-3 15,0 15,0 0,-12 0,-12 12,0 12,0 0,3 0,3 -9,0 -9,0 0,12 0,12 6,0 6,0 0,-3 0,-3 6,0 6,0 0,-12 0,-12 12,0 12,0 0,12 0,12 3,0 3,0 0,-12 0,-12 9,0 9,0 0,3 0,3 6,0 6,0 0,9 0,9 3,0 3,0 0,3 0,3 -3,0 -3,0 0,3 0,3 -3,0 -3,0 0,-12 0,-12 -3,0 -3,0 0,12 0,12 -3,0 -3,0 0,-15 0,-15 -3,0 -3,0 0,15 0,15 -3,0 -3,0 0,-3 0,-3 -3,0 -3,0 0,3 0,3 -12,0 -12,0 0,-3 0,-3 -3,0 -3,0 0,3 0,3 -12,0 -12,0 0,-3 0,-3 -3,0 -3,0 0,3 0,3 -6,0 -6,0 0,-3 0,-3 -3,0 -3,0 0,3 0,3 -12,0 -12,0 0,-3 0,-3 -3,0 -3,0 0,3 0,3 -3,0 -3,0 0,-3 0,-3 -3,0 -3,0 0,6 0,6 -12,0 -12,0 0,-6 z m -102,-15 0,-9 -6,0 -6,0 0,9 0,9 6,0 6,0 0,-9 z m 60,0 0,-9 -6,0 -6,0 0,9 0,9 6,0 6,0 0,-9 z m 180,-3 0,-12 -6,0 -6,0 0,12 0,12 6,0 6,0 0,-12 z m -78,-9 0,-3 -6,0 -6,0 0,3 0,3 6,0 6,0 0,-3 z"
     id="path2912"
     style="fill:#ffb380" />
  <rect
     width="6"
     height="6"
     x="228"
     y="159"
     id="rect3684"
     style="fill:#ffb380" />
</svg>
